<?xml version="1.0" encoding="UTF-8" standalone="no"?>
<!-- Created with Inkscape (http://www.inkscape.org/) -->

<svg
   xmlns:dc="http://purl.org/dc/elements/1.1/"
   xmlns:cc="http://creativecommons.org/ns#"
   xmlns:rdf="http://www.w3.org/1999/02/22-rdf-syntax-ns#"
   xmlns:svg="http://www.w3.org/2000/svg"
   xmlns="http://www.w3.org/2000/svg"
   xmlns:sodipodi="http://sodipodi.sourceforge.net/DTD/sodipodi-0.dtd"
   xmlns:inkscape="http://www.inkscape.org/namespaces/inkscape"
   width="1020"
   height="1020"
   id="svg2"
   sodipodi:version="0.32"
   inkscape:version="0.47 r22583"
   version="1.0"
   sodipodi:docname="960_grid_12_col.svg"
   inkscape:output_extension="org.inkscape.output.svg.inkscape">
  <metadata
     id="metadata2425">
    <rdf:RDF>
      <cc:Work
         rdf:about="">
        <dc:format>image/svg+xml</dc:format>
        <dc:type
           rdf:resource="http://purl.org/dc/dcmitype/StillImage" />
        <dc:title></dc:title>
      </cc:Work>
    </rdf:RDF>
  </metadata>
  <defs
     id="defs4">
    <inkscape:perspective
       sodipodi:type="inkscape:persp3d"
       inkscape:vp_x="0 : 510 : 1"
       inkscape:vp_y="0 : 1000 : 0"
       inkscape:vp_z="1020 : 510 : 1"
       inkscape:persp3d-origin="510 : 340 : 1"
       id="perspective2900" />
  </defs>
  <sodipodi:namedview
     id="base"
     pagecolor="#ffffff"
     bordercolor="#666666"
     borderopacity="1.0"
     gridtolerance="10000"
     guidetolerance="10"
     objecttolerance="10"
     inkscape:pageopacity="0.0"
     inkscape:pageshadow="2"
     inkscape:zoom="0.5245098"
     inkscape:cx="510"
     inkscape:cy="586.26168"
     inkscape:document-units="px"
     inkscape:current-layer="svg2"
     showgrid="true"
     showguides="true"
     inkscape:guide-bbox="true"
     inkscape:window-width="1280"
     inkscape:window-height="732"
     inkscape:window-x="0"
     inkscape:window-y="25"
     inkscape:window-maximized="0">
    <sodipodi:guide
       position="30,0"
       orientation="1,0"
       id="guide-30" />
    <sodipodi:guide
       position="40,0"
       orientation="1,0"
       id="guide-40" />
    <sodipodi:guide
       position="100,0"
       orientation="1,0"
       id="guide-100" />
    <sodipodi:guide
       position="110,0"
       orientation="1,0"
       id="guide-110" />
    <sodipodi:guide
       position="120,0"
       orientation="1,0"
       id="guide-120" />
    <sodipodi:guide
       position="180,0"
       orientation="1,0"
       id="guide-180" />
    <sodipodi:guide
       position="190,0"
       orientation="1,0"
       id="guide-190" />
    <sodipodi:guide
       position="200,0"
       orientation="1,0"
       id="guide-200" />
    <sodipodi:guide
       position="260,0"
       orientation="1,0"
       id="guide-260" />
    <sodipodi:guide
       position="270,0"
       orientation="1,0"
       id="guide-270" />
    <sodipodi:guide
       position="280,0"
       orientation="1,0"
       id="guide-280" />
    <sodipodi:guide
       position="340,0"
       orientation="1,0"
       id="guide-340" />
    <sodipodi:guide
       position="350,0"
       orientation="1,0"
       id="guide-350" />
    <sodipodi:guide
       position="360,0"
       orientation="1,0"
       id="guide-360" />
    <sodipodi:guide
       position="420,0"
       orientation="1,0"
       id="guide-420" />
    <sodipodi:guide
       position="430,0"
       orientation="1,0"
       id="guide-430" />
    <sodipodi:guide
       position="440,0"
       orientation="1,0"
       id="guide-440" />
    <sodipodi:guide
       position="500,0"
       orientation="1,0"
       id="guide-500" />
    <sodipodi:guide
       position="510,0"
       orientation="1,0"
       id="guide-510" />
    <sodipodi:guide
       position="520,0"
       orientation="1,0"
       id="guide-520" />
    <sodipodi:guide
       position="580,0"
       orientation="1,0"
       id="guide-580" />
    <sodipodi:guide
       position="590,0"
       orientation="1,0"
       id="guide-590" />
    <sodipodi:guide
       position="600,0"
       orientation="1,0"
       id="guide-600" />
    <sodipodi:guide
       position="660,0"
       orientation="1,0"
       id="guide-660" />
    <sodipodi:guide
       position="670,0"
       orientation="1,0"
       id="guide-670" />
    <sodipodi:guide
       position="680,0"
       orientation="1,0"
       id="guide-680" />
    <sodipodi:guide
       position="740,0"
       orientation="1,0"
       id="guide-740" />
    <sodipodi:guide
       position="750,0"
       orientation="1,0"
       id="guide-750" />
    <sodipodi:guide
       position="760,0"
       orientation="1,0"
       id="guide-760" />
    <sodipodi:guide
       position="820,0"
       orientation="1,0"
       id="guide-820" />
    <sodipodi:guide
       position="830,0"
       orientation="1,0"
       id="guide-830" />
    <sodipodi:guide
       position="840,0"
       orientation="1,0"
       id="guide-840" />
    <sodipodi:guide
       position="900,0"
       orientation="1,0"
       id="guide-900" />
    <sodipodi:guide
       position="910,0"
       orientation="1,0"
       id="guide-910" />
    <sodipodi:guide
       position="920,0"
       orientation="1,0"
       id="guide-920" />
    <sodipodi:guide
       position="980,0"
       orientation="1,0"
       id="guide-980" />
    <sodipodi:guide
       position="990,0"
       orientation="1,0"
       id="guide-990" />
    <inkscape:grid
       type="xygrid"
       id="grid2390"
       visible="true"
       enabled="true"
       color="#0000ff"
       opacity="0.0627451"
       empcolor="#0000ff"
       empopacity="0.1254902"
       dotted="false"
       spacingx="1px"
       spacingy="1px"
       originx="2.7755576e-17px"
       originy="0px" />
  </sodipodi:namedview>
  <path
     style="fill:none;stroke:#000000;stroke-width:1px;stroke-linecap:butt;stroke-linejoin:miter;stroke-opacity:1"
     d="m 70.542057,175.40186 c -4.961499,-4.33812 -3.813085,-11.28309 -3.813085,-17.15888 0,-4.44859 0,-8.89719 0,-13.34579 0,-1.27103 -0.401934,-2.60728 0,-3.81308 0.568421,-1.70527 3.009216,-2.20535 3.813085,-3.81309 0.28421,-0.56842 -0.284211,-1.33812 0,-1.90654 0.401934,-0.80387 1.271028,-1.27103 1.906542,-1.90654 0.635514,-0.63552 1.158734,-1.40801 1.906542,-1.90654 1.182387,-0.78826 2.808248,-0.90171 3.813084,-1.90655 0.449376,-0.44937 -0.449376,-1.45716 0,-1.90654 1.004836,-1.00483 2.808248,-0.90171 3.813084,-1.90654 0.449376,-0.44938 -0.449376,-1.45717 0,-1.90654 0.449376,-0.44938 1.338121,0.28421 1.906542,0 0.803869,-0.40194 1.271028,-1.27103 1.906542,-1.90655 1.271028,0 2.607281,0.40194 3.813084,0 0.852632,-0.28421 1.102674,-1.5046 1.906542,-1.90654 0.568421,-0.28421 1.271028,0 1.906542,0 0.635514,0 1.271028,0 1.906543,0 1.906542,0 3.813084,0 5.719626,0 3.81308,0 7.62617,0 11.43925,0 2.54206,0 5.1187,-0.41791 7.62617,0 1.40172,0.23362 2.43446,1.56189 3.81308,1.90654 6.60368,1.65092 1.14505,-2.4142 7.62617,1.90655 0.74781,0.49854 1.05391,1.62233 1.90654,1.90654 1.20581,0.40193 2.60729,-0.40194 3.81309,0 1.70526,0.56842 2.31747,2.81601 3.81308,3.81308 1.18239,0.78826 2.80825,0.90171 3.81309,1.90655 0.44937,0.44937 -0.44938,1.45716 0,1.90654 1.00483,1.00483 2.67624,1.05391 3.81308,1.90654 1.43801,1.0785 2.54206,2.54206 3.81309,3.81308 3.81308,3.81309 7.62616,7.62617 11.43925,11.43926 1.27103,1.27102 2.31747,2.816 3.81308,3.81308 1.18239,0.78826 2.6307,1.11828 3.81309,1.90654 0.7478,0.49854 1.10267,1.50461 1.90654,1.90654 0.56842,0.28421 1.33812,-0.28421 1.90654,0 0.80387,0.40194 1.10267,1.50461 1.90654,1.90655 0.56842,0.28421 1.27103,0 1.90654,0 1.27103,0 2.58001,-0.30827 3.81309,0 1.37862,0.34465 2.54205,1.27102 3.81308,1.90654 3.94471,1.97235 4.82088,2.63512 9.53271,3.81308 0.61654,0.15414 1.27103,0 1.90655,0 2.54205,0.63552 5.0982,1.2171 7.62616,1.90654 4.46359,1.21735 8.79381,2.98546 13.3458,3.81309 2.50105,0.45474 5.10966,-0.3595 7.62617,0 1.98947,0.28421 3.78728,1.35444 5.71962,1.90654 2.51948,0.71985 5.04153,1.47577 7.62617,1.90654 0.77864,0.12978 8.77363,0.15182 9.53271,0 8.23765,-1.64753 4.97036,-3.56333 11.43925,-5.71962 0.60291,-0.20097 1.37777,0.35252 1.90655,0 1.49561,-0.99708 2.37508,-2.73458 3.81308,-3.81309 2.27368,-1.70526 5.26139,-2.23657 7.62617,-3.81308 0.74781,-0.49854 1.27103,-1.27103 1.90654,-1.90654 0.63551,-0.63552 1.408,-1.15874 1.90654,-1.90655 0.78826,-1.18238 1.11829,-2.63069 1.90654,-3.81308 0.49854,-0.74781 1.62234,-1.05391 1.90655,-1.90654 0.40193,-1.20581 -0.40194,-2.60728 0,-3.81309 0.28421,-0.85263 1.408,-1.15873 1.90654,-1.90654 0.78826,-1.18239 1.45716,-2.46495 1.90654,-3.81308 0.95327,-2.85982 -1.90654,-1.90654 0,-5.71963 0.80387,-1.60774 3.00922,-2.20535 3.81308,-3.81308 0.56843,-1.13684 0,-2.54206 0,-3.81309 1.27103,-1.27102 2.81601,-2.31747 3.81309,-3.81308 0.35252,-0.52878 0,-1.27103 0,-1.90654 0,-1.27103 -0.30827,-2.58001 0,-3.81309 0.34465,-1.37862 1.56189,-2.43446 1.90654,-3.81308 0.30827,-1.23308 0,-2.54206 0,-3.81309 0,-14.041172 0,0.88494 0,-9.53271 0,-10.16822 0,-20.336445 0,-30.504669 0,-1.271028 0,-2.542056 0,-3.813084 0,-0.635514 0.28421,-1.338121 0,-1.906542 -0.40193,-0.803869 -1.50461,-1.102674 -1.90654,-1.906542 -0.28421,-0.568421 -0.63552,-1.906542 0,-1.906542 1.42105,0 2.43446,1.561886 3.81308,1.906542 1.23308,0.308269 2.54206,0 3.81309,0 1.27103,0 2.60728,0.401934 3.81308,0 0.85263,-0.284211 1.03463,-1.688563 1.90654,-1.906542 1.84962,-0.462405 3.81309,0 5.71963,0 8.8972,0 17.79439,0 26.69159,0 20.33645,0 40.6729,0 61.00934,0 8.26169,0 16.52337,0 24.78505,0 3.17757,0 6.35514,0 9.53271,0 3.17757,0 6.48915,-0.913068 9.53271,0 3.54937,1.064811 6.0921,4.343381 9.53271,5.719626 10.0567,4.022678 10.24566,-0.895198 19.06542,5.719626 0.50841,0.381309 0,1.271028 0,1.906542 1.27103,1.271028 2.31747,2.816008 3.81309,3.813084 0.52878,0.35252 1.45716,-0.449376 1.90654,0 1.00484,1.004836 1.11828,2.630697 1.90654,3.813084 2.9085,4.362748 1.50916,-1.192143 3.81309,5.719627 0.38127,1.143817 0,8.011372 0,9.53271 0,1.90654 0,3.81308 0,5.71963 0,0.63551 0.20096,1.30364 0,1.90654 -0.75224,2.25669 -4.6319,8.44497 -5.71963,9.53271 -0.44938,0.44937 -1.45717,-0.44938 -1.90654,0 -3.61033,3.61032 -0.58102,7.12983 -3.81309,11.43925 -0.76261,1.01682 -2.60728,-0.40193 -3.81308,0 -0.85263,0.28421 -1.15874,1.408 -1.90654,1.90654 -1.18239,0.78826 -2.46496,1.45717 -3.81309,1.90655 -0.6029,0.20096 -1.45716,-0.44938 -1.90654,0 -1.00483,1.00483 -0.90171,2.80824 -1.90654,3.81308 -0.44938,0.44938 -1.33812,-0.28421 -1.90654,0 -0.80387,0.40193 -1.10268,1.50461 -1.90655,1.90654 -1.13684,0.56842 -2.91433,-0.89875 -3.81308,0 -0.44938,0.44938 0.44938,1.45717 0,1.90654 -0.95327,0.95327 -4.76635,-0.95327 -5.71963,0 -0.44937,0.44938 0.44938,1.45717 0,1.90655 -0.44937,0.44937 -1.27102,0 -1.90654,0 -2.34786,0 -3.52887,0.28421 -5.71962,-1.90655 -0.0613,-0.0613 0,-5.25724 0,-5.71962 0,-1.90654 -0.60291,-3.91092 0,-5.71963 0.56842,-1.70526 2.816,-2.31747 3.81308,-3.81308 0.78826,-1.18239 0.90171,-2.80825 1.90654,-3.81309 1.00484,-1.00483 2.6307,-1.11828 3.81309,-1.90654 3.11378,-2.07585 0.78264,-2.82569 5.71962,-3.81308 1.86952,-0.37391 3.85011,0.3739 5.71963,0 1.39346,-0.27869 2.46495,-1.45717 3.81308,-1.90655 1.19665,-0.39888 6.09134,0 7.62617,0 0.63552,0 1.45717,-0.44937 1.90654,0 0.44938,0.44938 -0.44937,1.45717 0,1.90655 0.44938,0.44937 1.33812,-0.28421 1.90655,0 0.80386,0.40193 1.10267,1.5046 1.90654,1.90654 0.56842,0.28421 1.45716,-0.44938 1.90654,0 0.44938,0.44937 -0.44938,1.45716 0,1.90654 1.00484,1.00484 2.80825,0.90171 3.81308,1.90654 0.63204,0.63204 -0.63203,3.18105 0,3.81309 3.94471,3.9447 -0.1542,-6.02803 3.81309,1.90654 1.3149,2.6298 -2.30893,1.70535 1.90654,3.81308 0.56842,0.28421 1.45717,-0.44937 1.90654,0 0.89875,0.89876 -1.13684,3.24467 0,3.81309 1.13684,0.56842 2.67624,-0.56842 3.81309,0 0.56842,0.28421 -0.44938,1.45716 0,1.90654 1.00483,1.00484 2.63069,1.11828 3.81308,1.90654 0.74781,0.49854 1.50461,1.10267 1.90654,1.90654 0.28421,0.56842 -0.56842,1.62234 0,1.90655 1.13684,0.56842 2.67624,-0.56843 3.81309,0 0.56842,0.28421 -0.44938,1.45716 0,1.90654 0.44937,0.44937 1.30364,-0.20097 1.90654,0 1.34813,0.44937 2.46495,1.45716 3.81308,1.90654 0.6029,0.20097 1.30364,-0.20097 1.90654,0 1.34813,0.44938 2.43447,1.56189 3.81309,1.90654 1.23308,0.30827 2.67624,-0.56842 3.81308,0 1.60774,0.80387 2.31747,2.81601 3.81309,3.81309 0.52878,0.35252 1.30364,-0.20097 1.90654,0 2.69626,0.89875 4.86892,3.12377 7.62617,3.81308 1.68198,0.4205 5.99291,-0.54442 7.62617,0 1.34812,0.44938 2.43446,1.56189 3.81308,1.90654 1.3358,0.33395 10.74893,0 11.43925,0 1.27103,0 2.58001,-0.30827 3.81309,0 1.37862,0.34466 2.43446,1.56189 3.81308,1.90654 1.23308,0.30827 2.54206,0 3.81308,0 3.60305,0 8.39587,1.13685 11.43926,-1.90654 0.44937,-0.44937 -0.6029,-1.70557 0,-1.90654 1.8087,-0.6029 3.87001,0.4624 5.71962,0 0.87192,-0.21798 1.15874,-1.408 1.90655,-1.90654 1.18238,-0.78826 2.80824,-0.90171 3.81308,-1.90654 0.44938,-0.44938 -0.44938,-1.45717 0,-1.90655 1.00484,-1.00483 2.67624,-1.05391 3.81308,-1.90654 1.4351,-1.07632 8.45639,-8.09761 9.53271,-9.53271 0.85264,-1.13684 1.45717,-2.46495 1.90655,-3.81308 0.20096,-0.6029 0,-1.27103 0,-1.90654 0,-1.27103 0,-2.54206 0,-3.81309 0,-2.54206 0,-5.08411 0,-7.62617 0,-0.63551 -0.35252,-1.37776 0,-1.90654 0.99707,-1.49561 3.00921,-2.20535 3.81308,-3.81308 0.85263,-1.70527 0,-3.81309 0,-5.71963 0,-3.81308 0,-7.62617 0,-11.439252 0,-3.813084 0,-7.626168 0,-11.439252 0,-0.635514 0,-1.271029 0,-1.906543 0,-0.635514 0.28421,-1.338121 0,-1.906542 -0.40193,-0.803868 -1.10267,-1.504607 -1.90654,-1.906542 -0.50131,-0.250654 -6.6292,0 -7.62617,0 -0.63551,0 -1.27103,0 -1.90654,0 -0.63552,0 -1.45717,-0.449376 -1.90654,0 -0.44938,0.449377 0.44937,1.457166 0,1.906542 -3.94471,3.944704 0.1542,-6.028029 -3.81309,1.906542 -0.56842,1.136843 0.56842,2.676243 0,3.813085 -0.80387,1.607737 -3.24466,2.107821 -3.81308,3.813084 0,8.679118 0.89875,0.109037 -1.90654,5.719626 -0.28421,0.568421 0,1.271028 0,1.906542 0,0.635514 0,1.27103 0,1.90654 0,0.63552 -0.63552,1.90654 0,1.90654 5.2177,0 11.04639,-5.523194 15.25233,-7.626164 1.79751,-0.898753 3.99635,-0.872575 5.71963,-1.906542 1.54135,-0.924809 2.37508,-2.734581 3.81308,-3.813084 1.13684,-0.852632 2.67624,-1.053911 3.81309,-1.906542 1.438,-1.078503 2.20534,-3.009216 3.81308,-3.813085 1.13684,-0.568421 2.67624,0.568421 3.81308,0 7.59691,-3.798451 0.008,-3.815176 7.62617,-5.719626 1.23308,-0.308269 2.67625,0.568421 3.81309,0 1.60773,-0.803868 2.20534,-3.009215 3.81308,-3.813084 2.34366,-1.17183 5.14034,-1.077933 7.62617,-1.906542 1.34813,-0.449376 2.41963,-1.627851 3.81308,-1.906542 7.94393,-1.588785 3.17757,1.05919 9.53271,0 24.37412,-4.062353 11.78774,-3.813084 22.87851,-3.813084 1.90654,0 3.83902,-0.313434 5.71963,0 1.98232,0.330388 3.74898,1.512413 5.71962,1.906542 1.24635,0.249269 2.54206,0 3.81309,0 0.63551,0 1.33812,-0.284211 1.90654,0 0.56078,0.280392 3.2523,3.532692 3.81308,3.813084 0.56842,0.284211 1.62233,-0.568421 1.90654,0 0.56842,1.136842 -0.70504,2.755525 0,3.813084 0.78826,1.182387 2.80825,0.901706 3.81309,1.906542 1.00483,1.004836 1.11828,2.630697 1.90654,3.813084 0.49854,0.747808 1.62233,1.053911 1.90654,1.906542 0.40194,1.205804 -0.70504,2.755525 0,3.813085 0.78826,1.182387 3.02483,0.724154 3.81309,1.906542 0.70504,1.057559 -0.40194,2.607281 0,3.813084 0.28421,0.852631 1.5046,1.102673 1.90654,1.906542 0.28421,0.568421 -0.20097,1.30364 0,1.906542 0.44937,1.348129 1.56188,2.434461 1.90654,3.813082 0.42553,1.70213 0,7.32584 0,9.53271 0,0.63552 -0.20097,1.30364 0,1.90654 0.44938,1.34813 1.45717,2.46496 1.90654,3.81309 0.40194,1.2058 0,2.54205 0,3.81308 0,4.47118 0.44938,-0.89875 -1.90654,3.81309 -0.28421,0.56842 0.56842,1.62233 0,1.90654 -1.13684,0.56842 -2.91433,-0.89875 -3.81308,0 -0.89876,0.89875 0,2.54206 0,3.81308 -1.27103,0 -2.67625,-0.56842 -3.81309,0 -0.56842,0.28421 0.56842,1.62233 0,1.90655 -1.13684,0.56842 -2.67624,-0.56843 -3.81308,0 -0.56842,0.28421 0,2.54205 0,1.90654 0,-1.90654 0,-3.81309 0,-5.71963 0,-1.27103 -0.40194,-2.60728 0,-3.81308 0.44937,-1.34813 1.45716,-2.46496 1.90654,-3.81309 1.07686,-3.23059 -3.4952,-2.79631 3.81308,-5.71962 1.77018,-0.70808 4.13329,1.05756 5.71963,0 1.05756,-0.70504 -0.56842,-2.67625 0,-3.81309 0.80387,-1.60773 2.54206,-2.54205 3.81308,-3.81308 1.27103,-1.27103 2.54206,-2.54206 3.81309,-3.81309 0.63551,-0.63551 1.15873,-1.408 1.90654,-1.90654 1.18239,-0.78826 2.67624,-1.053908 3.81309,-1.90654 1.438,-1.078503 2.20534,-3.009215 3.81308,-3.813084 1.13684,-0.568421 2.56674,0.249269 3.81308,0 3.82861,0.437512 6.21255,-2.983043 9.53271,-3.813084 1.23308,-0.30827 2.54206,0 3.81309,0 1.90654,0 3.81308,0 5.71962,0 5.08412,0 10.16823,0 15.25234,0 1.27103,0 2.54206,0 3.81308,0 1.27103,0 2.58001,0.308269 3.81309,0 1.37862,-0.344656 2.46495,-1.457166 3.81308,-1.906542 1.26023,-0.420075 11.30039,0 13.3458,0 5.71962,0 11.43925,0 17.15888,0 1.90561,0 7.90159,-0.407779 9.53271,0 1.94966,0.487417 3.74898,1.512413 5.71962,1.906542 2.49269,0.498538 5.21456,-0.803869 7.62617,0 0.85263,0.28421 1.10267,1.504607 1.90654,1.906542 0.56842,0.28421 1.30364,-0.200967 1.90655,0 11.83411,3.944703 -6.33644,-0.154202 9.53271,3.813084 1.79439,0.448598 3.92523,-0.448598 5.71962,0 1.37863,0.344656 2.46496,1.457166 3.81309,1.906542 0.6029,0.200967 1.27102,0 1.90654,0 1.27103,0.635514 2.46495,1.45717 3.81308,1.90654 1.53458,0.51153 6.40785,-0.60916 7.62617,0 1.60774,0.80387 2.20535,3.00922 3.81308,3.81309 0.56843,0.28421 1.30364,-0.20097 1.90655,0 13.80987,4.60329 -3.00587,-0.54967 5.71962,3.81308 0.56842,0.28421 1.33812,-0.28421 1.90654,0 0.80387,0.40193 1.10268,1.50461 1.90655,1.90654 0.56842,0.28421 1.33812,-0.28421 1.90654,0 1.60774,0.80387 2.20535,3.00922 3.81308,3.81309 2.62981,1.3149 1.70535,-2.30893 3.81309,1.90654 0.28421,0.56842 -0.44938,1.45716 0,1.90654 0.89875,0.89875 2.91433,-0.89875 3.81308,0 0.89875,0.89875 -0.89875,2.91433 0,3.81308 0.44938,0.44938 1.45717,-0.44937 1.90654,0 0.89876,0.89876 -0.89875,2.91434 0,3.81309 0.44938,0.44938 1.33812,-0.28421 1.90655,0 7.93457,3.96728 -2.03817,-0.13162 1.90654,3.81308 0.44937,0.44938 1.45716,-0.44937 1.90654,0 0.95327,0.95327 -0.95327,4.76636 0,5.71963 0.44938,0.44938 1.45717,-0.44938 1.90654,0 0.44938,0.44938 -0.20097,1.30364 0,1.90654 0.44938,1.34813 1.45717,2.46496 1.90654,3.81309 0.20097,0.6029 -0.28421,1.33812 0,1.90654 0.7582,1.51639 3.05489,2.29669 3.81309,3.81308 0.28421,0.56842 -0.44938,1.45717 0,1.90654 3.9447,3.94471 -0.1542,-6.02803 3.81308,1.90655 0.28421,0.56842 -0.44937,1.45716 0,1.90654 7.44073,7.44073 1.02391,-0.44132 5.71963,1.90654 7.93457,3.96729 -2.03816,-0.13162 1.90654,3.81308 0.44938,0.44938 1.33812,-0.28421 1.90654,0 0.80387,0.40194 1.10268,1.50461 1.90654,1.90655 1.13685,0.56842 2.91434,-0.89876 3.81309,0 0.44937,0.44937 -0.44938,1.45716 0,1.90654 0.44937,0.44937 1.33812,-0.28421 1.90654,0 0.80387,0.40193 1.27103,1.27103 1.90654,1.90654 1.27103,0 2.60728,-0.40193 3.81309,0 0.85263,0.28421 1.10267,1.50461 1.90654,1.90654 0.56842,0.28421 1.45716,-0.44937 1.90654,0 0.44938,0.44938 -0.44938,1.45717 0,1.90654 0.38977,0.38977 4.9637,-0.37796 5.71963,0 0.80387,0.40194 1.15873,1.40801 1.90654,1.90655 1.18239,0.78825 2.80825,0.9017 3.81308,1.90654 0.44938,0.44937 -0.20096,1.30364 0,1.90654 0.63552,1.27103 1.27103,2.54206 1.90655,3.81308 0.63551,0 1.45716,-0.44937 1.90654,0 0.44937,0.44938 0,1.27103 0,1.90655 0,3.17757 0,6.35514 0,9.53271 0,0.63551 0.44937,1.45716 0,1.90654 -0.89875,0.89875 -2.91433,-0.89875 -3.81309,0 -0.89875,0.89875 0.89876,2.91433 0,3.81308 -0.63351,0.63352 -3.17957,-0.63351 -3.81308,0 -0.63676,0.63676 0.63676,3.17633 0,3.81309 -0.63414,0.63413 -3.17895,-0.63414 -3.81308,0 -0.44938,0.44937 -0.44938,1.45716 0,1.90654 0.44937,0.44938 1.27102,0 1.90654,0"
     id="path2908" />
  <path
     style="fill:none;stroke:#000000;stroke-width:1.05294466px;stroke-linecap:butt;stroke-linejoin:miter;stroke-opacity:1"
     d="m 72.440073,213.58188 c 0.632672,0 1.450648,-0.50046 1.898015,0 0.447367,0.50046 0,1.41551 0,2.12327 0,4.24652 0,8.49305 0,12.73958 0,0.70775 0.447367,1.6228 0,2.12326 -0.447367,0.50047 -1.450649,-0.50046 -1.898015,0 -0.447368,0.50047 -0.447368,1.62281 0,2.12327 0.447366,0.50046 1.450648,-0.50046 1.898015,0 0.447367,0.50046 0,1.41551 0,2.12326 0,0.70776 0,1.41551 0,2.12327 0,4.24652 0,8.49306 0,12.73958 0,0.70775 -0.447367,1.62281 0,2.12327 0.447367,0.50046 1.45065,-0.50046 1.898016,0 0.447366,0.50046 0,1.41551 0,2.12326 0,0.70776 0.282939,1.49023 0,2.12327 -0.400138,0.89524 -1.497879,1.22801 -1.898016,2.12326 -0.28294,0.63304 0.447367,1.6228 0,2.12326 -3.927062,4.39311 0.153512,-6.71325 -3.796031,2.12327 -0.28294,0.63303 0.447366,1.62281 0,2.12326 -0.447367,0.50046 -1.450649,-0.50045 -1.898016,0 -0.447367,0.50046 0.447367,1.62281 0,2.12327 -0.447367,0.50045 -1.450649,-0.50046 -1.898016,0 -0.894733,1.00091 0.565879,2.98046 0,4.24653 -0.400137,0.89524 -1.497878,1.22801 -1.898016,2.12326 -0.288814,0.64618 0,5.41356 0,6.36979 0,0.70775 -0.447366,1.6228 0,2.12327 0.447367,0.50046 1.450649,-0.50047 1.898016,0 0.447367,0.50046 -0.282939,1.49022 0,2.12326 0.400137,0.89525 1.497879,1.22802 1.898016,2.12326 0.282939,0.63305 -0.447367,1.62281 0,2.12327 0.447367,0.50045 1.450649,-0.50046 1.898016,0 0.447366,0.50045 -0.447367,1.6228 0,2.12327 0.447366,0.50046 1.450648,-0.50047 1.898016,0 0.456721,0.51092 -0.456722,7.98212 0,8.49305 0.447366,0.50046 1.450648,-0.50046 1.898015,0 0.447367,0.50046 -0.447367,1.6228 0,2.12327 0.447367,0.50046 1.45065,-0.50047 1.898016,0 0.447366,0.50046 0,1.41551 0,2.12326 0,3.53877 0,7.07755 0,10.61632 0,7.07755 0,14.15509 0,21.23264 0,0.70776 0,1.41551 0,2.12326 0,0.70776 0.447366,1.62281 0,2.12328 -0.447366,0.50045 -1.450649,-0.50047 -1.898016,0 -0.06104,0.0683 0,5.85484 0,6.36978 0,10.61632 0,21.23264 0,31.84897 0,1.50497 0.245367,12.19062 0,12.73959 -0.400137,0.89524 -1.497879,1.22801 -1.898015,2.12326 -0.28294,0.63304 0,1.41551 0,2.12326 0,0.70775 0,1.41552 0,2.12327 0,4.24653 0,8.49305 0,12.73958 0,0.77975 -0.07638,8.40762 0,8.49306 0.447366,0.50046 1.450648,-0.50045 1.898015,0 0.06104,0.0683 0,5.85484 0,6.36979 0,9.20081 0,18.40162 0,27.60244 0,1.47681 0.343193,9.84848 0,10.61632 -0.400137,0.89525 -1.497879,1.22802 -1.898015,2.12327 -0.288816,0.64617 0,5.41356 0,6.36978 0,4.24654 0,8.49306 0,12.7396 0,0.70775 0,1.41551 0,2.12326 0,0.70775 0.447366,1.62281 0,2.12326 -0.447368,0.50046 -1.45065,-0.50045 -1.898016,0 -0.06104,0.0683 0,5.85485 0,6.3698 0,12.73958 0,25.47916 0,38.21875 0,3.53877 0,7.07756 0,10.61633 0,1.4155 0,2.83101 0,4.24652 0,0.70775 0.632672,2.12326 0,2.12326 -0.632672,0 0,-1.41551 0,-2.12326"
     id="path2910" />
  <path
     style="fill:none;stroke:#000000;stroke-width:1px;stroke-linecap:butt;stroke-linejoin:miter;stroke-opacity:1"
     d="m 74.168225,564.61682 c 3.995359,3.01691 1.840349,0.62987 1.906542,9.53271 0.0047,0.6355 0,1.27103 0,1.90654 0,0.63552 0.449376,1.45717 0,1.90654 -0.898753,0.89876 -2.914332,-0.89875 -3.813084,0 -0.953271,0.95327 0.953271,4.76636 0,5.71963 -0.449376,0.44938 -1.457166,-0.44938 -1.906542,0 -0.449377,0.44938 0,1.27103 0,1.90654 0,0.63552 0,1.27103 0,1.90654 0,0.70016 -0.07672,7.54945 0,7.62617 0.449376,0.44938 1.457166,-0.44937 1.906542,0 0.449376,0.44938 -0.284211,1.33812 0,1.90654 2.355918,4.71184 1.906542,-0.65809 1.906542,3.81309 0,3.17757 0,6.35514 0,9.53271 0,0.63551 0.449376,1.45716 0,1.90654 -0.449376,0.44938 -1.457166,-0.44938 -1.906542,0 -0.449376,0.44938 0.449376,1.45717 0,1.90654 -0.449376,0.44938 -1.457166,-0.44937 -1.906542,0 -0.449377,0.44938 0,1.27103 0,1.90654 0,3.48345 0.45727,1.90655 3.813084,1.90655"
     id="path2912" />
  <path
     style="fill:none;stroke:#000000;stroke-width:1px;stroke-linecap:butt;stroke-linejoin:miter;stroke-opacity:1"
     d="m 70.542057,633.1028 c -0.627262,0.62726 0.627261,3.18582 0,3.81309 -0.449377,0.44937 -1.457166,-0.44938 -1.906542,0 -0.449377,0.44937 0,1.27102 0,1.90654 0,3.17757 0,6.35514 0,9.53271 0,0.63551 0.449376,1.45716 0,1.90654 -0.449377,0.44938 -1.457166,-0.44938 -1.906543,0 -0.449376,0.44938 0,1.27103 0,1.90654 0,0.63552 -0.28421,1.33812 0,1.90654 0.401935,0.80387 1.504608,1.10268 1.906543,1.90655 0.28421,0.56842 -0.449377,1.45716 0,1.90654 0.07672,0.0767 6.926016,0 7.626168,0 5.084112,0 -0.635514,-0.63552 1.906542,1.90654 0.458773,0.45877 7.167395,-0.45877 7.626168,0 0.449376,0.44938 -0.449376,1.45717 0,1.90654 0.953271,0.95327 4.766355,-0.95327 5.719626,0 0.449377,0.44938 -0.449376,1.45717 0,1.90654 0.449377,0.44938 1.457166,-0.44937 1.906542,0 0.449377,0.44938 -0.449376,1.45717 0,1.90655 0.898753,0.89875 2.914332,-0.89876 3.813085,0 0.449376,0.44937 -0.449377,1.45716 0,1.90654 0.898752,0.89875 2.914334,-0.89875 3.813084,0 0.89875,0.89875 -0.89875,2.91433 0,3.81308 0.44938,0.44938 1.45717,-0.44937 1.90654,0 0.89875,0.89876 -0.89875,2.91433 0,3.81309 0.44938,0.44937 1.33812,-0.28421 1.90654,0 1.60774,0.80387 2.20535,3.00921 3.81309,3.81308 0.56842,0.28421 1.45716,-0.44938 1.90654,0 0.44938,0.44938 -0.44938,1.45717 0,1.90654 0.59036,0.59036 8.94236,-0.59035 9.53271,0 0.44938,0.44938 -0.44938,1.45717 0,1.90654 0.0613,0.0613 5.25724,0 5.71963,0 3.17757,0 6.35514,0 9.53271,0 0.63551,0 1.45716,0.44938 1.90654,0 0.44938,-0.44937 -0.44938,-1.45716 0,-1.90654 0.95327,-0.95327 4.76635,0.95327 5.71963,0 0.44937,-0.44937 -0.44938,-1.45716 0,-1.90654 0.95327,-0.95327 4.76635,0.95327 5.71962,0 3.9447,-3.9447 -6.02803,0.1542 1.90654,-3.81308 0.56842,-0.28421 1.27103,0 1.90655,0 0.63551,0 1.27102,0 1.90654,0 3.17757,0 6.35514,0 9.53271,0 7.62617,0 15.25233,0 22.8785,0 0.63552,0 1.27103,0 1.90654,0 0.63552,0 1.45717,-0.44938 1.90655,0 0.44937,0.44937 -0.44938,1.45716 0,1.90654 0.59035,0.59035 8.94235,-0.59036 9.53271,0 0.44937,0.44938 -0.44938,1.45716 0,1.90654 0.0613,0.0613 5.25724,0 5.71962,0 5.71963,0 11.43926,0 17.15888,0 0.99697,0 7.12486,-0.25065 7.62617,0 0.80387,0.40194 1.10267,1.50461 1.90654,1.90654 0.75593,0.37797 5.32986,-0.38976 5.71963,0 0.95327,0.95327 -0.95327,4.76636 0,5.71963 0.89875,0.89875 2.91433,-0.89875 3.81308,0 0.89876,0.89875 -0.89875,2.91433 0,3.81308 0.89876,0.89876 2.91433,-0.89875 3.81309,0 0.44937,0.44938 -0.44938,1.45717 0,1.90655 0.44937,0.44937 1.45716,-0.44938 1.90654,0 0.44938,0.44937 -0.44938,1.45716 0,1.90654 0.0613,0.0613 5.25724,0 5.71963,0 0.63551,0 1.90654,-0.63552 1.90654,0 0,0.63551 -1.45717,-0.44938 -1.90654,0 -0.44938,0.44937 0,1.27103 0,1.90654"
     id="path2914" />
  <path
     style="fill:none;stroke:#000000;stroke-width:1px;stroke-linecap:butt;stroke-linejoin:miter;stroke-opacity:1"
     d="m 953.27104,234.50467 c 0,4.47118 -0.44938,-0.89876 1.90654,3.81308 0.28421,0.56842 0,1.27103 0,1.90654 0,1.27103 0.89875,2.91433 0,3.81309 -0.63552,0.63551 -1.00779,-1.90654 -1.90654,-1.90654 -0.63552,0 0,1.27102 0,1.90654 0,2.54205 0,5.08411 0,7.62617 0,8.89719 0,17.79439 0,26.69158 0,0.63552 0,1.27103 0,1.90655 0,0.63551 -0.44938,1.45716 0,1.90654 0.44937,0.44938 1.62233,-0.56842 1.90654,0 0.27892,0.55784 0,9.87875 0,11.43925 0,8.26168 0,16.52337 0,24.78505 0,5.08411 0,10.16822 0,15.25233 0,0.99697 0.25065,7.12486 0,7.62617 -0.40194,0.80387 -1.50461,1.10268 -1.90654,1.90655 -0.28422,0.56842 0,1.27102 0,1.90654 0,1.1351 0.35761,10.72402 0,11.43925 -0.28422,0.56842 -1.45717,-0.44938 -1.90655,0 -0.52167,0.52167 0.51714,6.59189 0,7.62617 -3.96728,7.93457 0.13162,-2.03816 -3.81308,1.90654 -0.44938,0.44938 0,1.27103 0,1.90654 0,3.81309 0,7.62617 0,11.43925 0,0.63552 -0.28421,1.33813 0,1.90655 0.40193,0.80387 1.10267,1.5046 1.90654,1.90654 0.56842,0.28421 1.62233,-0.56842 1.90654,0 0.85263,1.70526 0,3.81308 0,5.71962 0,4.30733 -0.28421,-0.85263 1.90655,5.71963 0.40193,1.2058 -0.56843,2.67624 0,3.81309 0.40193,0.80386 1.5046,1.10267 1.90654,1.90654 0.50513,1.01026 -0.50514,2.80282 0,3.81308 4.36274,8.7255 -0.79021,-8.09025 3.81308,5.71963 0.40194,1.2058 -0.89875,2.91433 0,3.81308 0.44938,0.44938 1.45717,-0.44937 1.90654,0 0.45878,0.45877 -0.45877,7.1674 0,7.62617 0.89876,0.89875 2.91434,-0.89875 3.81309,0 0.44937,0.44938 0,1.27103 0,1.90654 0,5.08411 0,10.16823 0,15.25234 0,3.17757 0,6.35514 0,9.53271 0,0.63551 0.44937,1.45716 0,1.90654 -0.44938,0.44938 -1.45717,-0.44938 -1.90654,0 -0.44938,0.44938 0.20096,1.30364 0,1.90654 -0.44938,1.34813 -0.90171,2.80825 -1.90655,3.81309 -0.63351,0.63351 -3.17957,-0.63352 -3.81308,0 -0.0767,0.0767 0,6.92601 0,7.62617 0,5.08411 -0.63551,-0.63552 1.90654,1.90654 0.44938,0.44937 -0.44937,1.45716 0,1.90654 0.44938,0.44938 1.45717,-0.44938 1.90654,0 0.95327,0.95327 -0.95327,4.76635 0,5.71963 3.94471,3.9447 -0.1542,-6.02803 3.81309,1.90654 0.50563,1.01126 -0.50563,2.80182 0,3.81308 0.40193,0.80387 1.50461,1.10268 1.90654,1.90654 0.34473,0.68947 0,8.20664 0,9.53271 0,0.46239 0.0613,5.65832 0,5.71963 -0.44938,0.44938 -1.45717,-0.44938 -1.90654,0 -0.89875,0.89875 0.89875,2.91433 0,3.81308 -0.44938,0.44938 -1.45717,-0.44937 -1.90654,0 -0.89876,0.89876 0.89875,2.91434 0,3.81309 -0.44938,0.44938 -1.45717,-0.44938 -1.90655,0 -0.44937,0.44938 0.44938,1.45716 0,1.90654 -0.44937,0.44938 -1.45716,-0.44938 -1.90654,0 -0.44937,0.44938 0.28421,1.33812 0,1.90654 -0.40193,0.80387 -1.50461,1.10268 -1.90654,1.90655 -0.56842,1.13684 0.89875,2.91433 0,3.81308 -0.44938,0.44938 -1.45717,-0.44938 -1.90654,0 -0.89876,0.89875 0.89875,2.91433 0,3.81308 -0.44938,0.44938 -1.45717,-0.44937 -1.90654,0 -0.66924,0.66924 0.65845,8.2158 0,9.53271 -0.40194,0.80387 -1.90655,1.00779 -1.90655,1.90655 0,1.42105 1.45717,2.46495 1.90655,3.81308 0.39999,1.19998 0,7.81422 0,9.53271"
     id="path2916" />
  <path
     style="fill:none;stroke:#000000;stroke-width:1px;stroke-linecap:butt;stroke-linejoin:miter;stroke-opacity:1"
     d="m 957.08412,565.49532 c 4.45274,-0.67962 0.47026,2.37681 1.90654,3.81309 0.44938,0.44937 1.45717,-0.44938 1.90654,0 0.19066,0.19065 0.19066,5.52897 0,5.71962 -0.44937,0.44938 -1.45716,-0.44937 -1.90654,0 -0.44937,0.44938 0.28421,1.33813 0,1.90655 -0.40193,0.80386 -1.50461,1.10267 -1.90654,1.90654 -0.28421,0.56842 0.44938,1.45716 0,1.90654 -0.63204,0.63204 -3.18105,-0.63204 -3.81308,0 -0.44938,0.44938 0.44937,1.45717 0,1.90654 -0.44938,0.44938 -1.45717,-0.44937 -1.90655,0 -0.44937,0.44938 0.44938,1.45717 0,1.90654 -0.44937,0.44938 -1.45716,-0.44937 -1.90654,0 -0.89875,0.89876 0.89875,2.91434 0,3.81309 -0.44938,0.44937 -1.45716,-0.44938 -1.90654,0 -0.44938,0.44937 0.44938,1.45716 0,1.90654 -3.9447,3.9447 0.1542,-6.02803 -3.81309,1.90654 -0.76261,1.52524 0.76262,4.1944 0,5.71963 -0.40193,0.80387 -1.5046,1.10267 -1.90654,1.90654 -0.28421,0.56842 0,1.27103 0,1.90654 -0.63551,0.63552 -1.5046,1.10268 -1.90654,1.90655 -0.28421,0.56842 0.44938,1.45716 0,1.90654 -0.95327,0.95327 -4.76635,-0.95327 -5.71963,0 -0.44937,0.44937 0.44938,1.45716 0,1.90654 -0.63141,0.63141 -3.18166,-0.63142 -3.81308,0 -0.44938,0.44938 0.44938,1.45717 0,1.90654 -0.6181,0.6181 -8.32263,-0.60504 -9.53271,0 -0.80387,0.40194 -1.10267,1.50461 -1.90654,1.90654 -0.49294,0.24647 -10.08789,0 -11.43925,0 -0.63552,0 -1.27103,0 -1.90655,0 -0.63551,0 -1.45716,-0.44937 -1.90654,0 -0.44937,0.44938 0.44938,1.45717 0,1.90655 -0.44937,0.44937 -1.27103,0 -1.90654,0 -0.63551,0 -1.27103,0 -1.90654,0 -5.08411,0 -10.16823,0 -15.25234,0 -0.70015,0 -7.54945,0.0767 -7.62617,0 -0.44937,-0.44938 0.44938,-1.45717 0,-1.90655 -0.44937,-0.44937 -1.45716,0.44938 -1.90654,0 -0.44938,-0.44937 0.44938,-1.45716 0,-1.90654 -0.89875,-0.89875 -2.91433,0.89875 -3.81308,0 -0.44938,-0.44937 0.44937,-1.45716 0,-1.90654 -0.44938,-0.44938 -1.33812,0.28421 -1.90655,0 -0.80386,-0.40193 -1.10267,-1.50461 -1.90654,-1.90654 -1.13684,-0.56842 -2.91433,0.89875 -3.81308,0 -0.44938,-0.44938 0.44937,-1.45717 0,-1.90654 -0.44938,-0.44938 -1.45717,0.44937 -1.90654,0 -0.44938,-0.44938 0.56842,-1.62234 0,-1.90655 -1.70527,-0.85263 -3.81309,0 -5.71963,0 -3.81308,0 -7.62617,0 -11.43925,0 -0.70015,0 -7.54945,-0.0767 -7.62617,0 -0.44938,0.44938 0.44938,1.45717 0,1.90655 -0.45877,0.45877 -7.1674,-0.45878 -7.62617,0 -0.89875,0.89875 0.89875,2.91433 0,3.81308 -0.95327,0.95327 -4.76635,-0.95327 -5.71963,0 -0.44937,0.44938 0.44938,1.45717 0,1.90654 -0.45877,0.45877 -7.16739,-0.45877 -7.62616,0 -0.44938,0.44938 0.44937,1.45717 0,1.90654 -0.59036,0.59036 -8.94236,-0.59035 -9.53271,0 -0.44938,0.44938 0.44937,1.45717 0,1.90655 -0.52168,0.52167 -6.5919,-0.51714 -7.62617,0 -0.80387,0.40193 -1.10268,1.5046 -1.90654,1.90654 -0.50131,0.25065 -6.6292,0 -7.62617,0 -0.63552,0 -1.27103,0 -1.90654,0 -1.27103,0 -3.81309,1.27103 -3.81309,0 0,-1.27103 3.81309,-1.27103 3.81309,0 0,2.19075 -4.35151,1.90654 -5.71963,1.90654 -0.99697,0 -7.12486,-0.25065 -7.62617,0 -0.80387,0.40193 -1.10267,1.50461 -1.90654,1.90654 -0.56842,0.28421 -1.27103,0 -1.90654,0 -2.54206,0 -5.08412,0 -7.62617,0 -0.63552,0 -1.45717,0.44938 -1.90654,0 -0.44938,-0.44937 0.44937,-1.45716 0,-1.90654 -0.44938,-0.44938 -1.27103,0 -1.90655,0 -0.63551,0 -1.27102,0 -1.90654,0 -9.53271,0 -19.06542,0 -28.59813,0 -0.89893,0 -9.4463,0.0864 -9.53271,0 -0.44938,-0.44938 0.44938,-1.45717 0,-1.90654 -0.44938,-0.44938 -1.27103,0 -1.90654,0 -3.81309,0 -7.62617,0 -11.43925,0 -4.4486,0 -8.8972,0 -13.3458,0 -0.63551,0 -1.45716,-0.44938 -1.90654,0 -0.44938,0.44937 0.44938,1.45716 0,1.90654 -0.45877,0.45877 -7.1674,-0.45877 -7.62617,0 -0.44938,0.44938 0.44938,1.45717 0,1.90654 -0.89875,0.89875 -2.91433,-0.89875 -3.81308,0 -0.44938,0.44938 0.44937,1.45717 0,1.90654 -0.45878,0.45878 -7.1674,-0.45877 -7.62617,0 -0.44938,0.44938 0.44938,1.45717 0,1.90655 -0.0767,0.0767 -6.92602,0 -7.62617,0 -15.88785,0 -31.7757,0 -47.66355,0"
     id="path2918" />
  <path
     style="fill:none;stroke:#000000;stroke-width:1px;stroke-linecap:butt;stroke-linejoin:miter;stroke-opacity:1"
     d="m 960.76635,661.53271 c 0,-1.97235 0.44938,-2.63513 -1.90654,-3.81309 -0.56842,-0.28421 -1.45716,0.44938 -1.90654,0 -0.44938,-0.44937 0.44938,-1.45716 0,-1.90654 -0.63204,-0.63203 -3.18105,0.63204 -3.81308,0 -0.44938,-0.44937 0.44937,-1.45716 0,-1.90654 -0.44938,-0.44938 -1.33812,0.28421 -1.90655,0 -0.80386,-0.40193 -1.10267,-1.50461 -1.90654,-1.90654 -0.49294,-0.24647 -10.08789,0 -11.43925,0 -0.63551,0 -1.45717,-0.44938 -1.90654,0 -0.44938,0.44937 0.44937,1.45716 0,1.90654 -0.59036,0.59036 -8.94236,-0.59035 -9.53271,0 -0.44938,0.44938 0.44937,1.45717 0,1.90654 -0.44938,0.44938 -1.33812,-0.28421 -1.90654,0 -0.80387,0.40194 -1.10268,1.50461 -1.90655,1.90654 -1.13684,0.56843 -2.91433,-0.89875 -3.81308,0 -0.44938,0.44938 0.44938,1.45717 0,1.90655 -0.44938,0.44937 -1.45717,-0.44938 -1.90654,0 -0.44938,0.44937 0.44937,1.45716 0,1.90654 -0.89876,0.89875 -2.91433,-0.89875 -3.81309,0 -0.44937,0.44938 0.44938,1.45716 0,1.90654 -0.44937,0.44938 -1.45716,-0.44938 -1.90654,0 -0.44938,0.44938 0.44938,1.45717 0,1.90654 -0.95327,0.95327 -4.76635,-0.95327 -5.71963,0 -0.89875,0.89876 0.89876,2.91433 0,3.81309 -0.89875,0.89875 -2.91433,-0.89876 -3.81308,0 -0.44938,0.44937 0.44938,1.45716 0,1.90654 -0.44938,0.44938 -1.27103,0 -1.90654,0 -3.17757,0 -6.35514,0 -9.53271,0 -1.27103,0 -2.60728,0.40193 -3.81309,0 -1.34812,-0.44938 -2.46495,-1.45717 -3.81308,-1.90654 -1.2058,-0.40194 -2.91433,0.89875 -3.81308,0 -0.44938,-0.44938 0.44937,-1.45717 0,-1.90655 -0.44938,-0.44937 -1.45717,0.44938 -1.90655,0 -0.44937,-0.44937 0.44938,-1.45716 0,-1.90654 -0.63203,-0.63203 -3.18104,0.63204 -3.81308,0 -0.44938,-0.44937 0.28421,-1.33812 0,-1.90654 -3.96729,-7.93457 0.13162,2.03816 -3.81308,-1.90654 -0.44938,-0.44938 0.44937,-1.45717 0,-1.90654 -0.44938,-0.44938 -1.45717,0.44937 -1.90655,0 -0.44937,-0.44938 0.44938,-1.45717 0,-1.90655 -0.44937,-0.44937 -1.45716,0.44938 -1.90654,0 -0.44937,-0.44937 0.44938,-1.45716 0,-1.90654 -0.44937,-0.44937 -1.45716,0.44938 -1.90654,0 -0.44938,-0.44937 0.44938,-1.45716 0,-1.90654 -0.44938,-0.44938 -1.33812,0.28421 -1.90654,0 -0.80387,-0.40193 -1.10268,-1.50461 -1.90654,-1.90654 -0.58023,-0.29011 -4.86101,0 -5.71963,0"
     id="path2920" />
  <path
     style="fill:none;stroke:#000000;stroke-width:1px;stroke-linecap:butt;stroke-linejoin:miter;stroke-opacity:1"
     d="m 295.51402,667.28972 c -0.67963,4.45274 2.37681,0.47026 3.81309,1.90654 1.00483,1.00483 0.9017,2.80825 1.90654,3.81308 0.44937,0.44938 1.45716,-0.44937 1.90654,0 0.44938,0.44938 -0.44938,1.45717 0,1.90655 3.9447,3.9447 -0.1542,-6.02803 3.81308,1.90654 0.28421,0.56842 -0.44937,1.45716 0,1.90654 0.89876,0.89875 2.91433,-0.89875 3.81309,0 0.89875,0.89875 -0.89876,2.91433 0,3.81308 0.89875,0.89876 2.91433,-0.89875 3.81308,0 0.44938,0.44938 0,1.27103 0,1.90655 0,0.63551 0.44938,1.45716 0,1.90654 -0.44937,0.44937 -1.45716,-0.44938 -1.90654,0 -0.44938,0.44937 0.44938,1.45716 0,1.90654 -0.89875,0.89875 -2.91433,-0.89875 -3.81308,0 -0.44938,0.44938 0.28421,1.33812 0,1.90654 -3.96729,7.93457 0.13161,-2.03816 -3.81309,1.90654 -3.9447,3.94471 6.02803,-0.1542 -1.90654,3.81309 -0.56842,0.28421 -1.45717,-0.44938 -1.90654,0 -0.89876,0.89875 0.89875,2.91433 0,3.81308 -0.89876,0.89875 -2.91433,-0.89875 -3.81309,0 -0.44937,0.44938 0.44938,1.45717 0,1.90654 -0.95327,0.95328 -4.76635,-0.95327 -5.71962,0 -0.89876,0.89876 0.89875,2.91434 0,3.81309 -2.54206,2.54205 -1.90655,-3.17757 -1.90655,1.90654"
     id="path2922" />
</svg>
